<?xml version="1.0" encoding="UTF-8"?><svg id="Lag_2" xmlns="http://www.w3.org/2000/svg" viewBox="0 0 200 50.35"><defs><style>.cls-1,.cls-2{fill:#1d1d1b;}.cls-3{letter-spacing:-.07em;}.cls-2{font-family:Arial-Black, 'Arial Black';font-size:22.58px;font-weight:800;stroke:#1d1d1b;stroke-miterlimit:10;stroke-width:.5px;}.cls-4{letter-spacing:0em;}.cls-5{letter-spacing:-.03em;}</style></defs><g id="Lag_1-2"><g><g><g><path class="cls-1" d="m199.98,26.73c0-.26-.05-.54-.14-.8-.02-.05-.04-.1-.06-.15-.02-.05-.04-.1-.06-.15-.02-.05-.05-.1-.07-.14-.47-.84-1.31-.97-2.2-.97-8.22,0-16.44,0-24.66,0-.19,0-.38.01-.57.03-1.2.12-1.91.89-1.91,2.1,0,5.38,0,10.77.01,16.15,0,.36.1.76.27,1.08.45.84,1.25,1.07,2.15,1.07,2.58,0,5.17,0,7.75,0h.69v3c-.29,0-.54,0-.8,0-.27,0-.55,0-.82.04-.79.11-1.21.75-1.01,1.51.16.61.55.85,1.43.85,3.43,0,6.87,0,10.3,0,.21,0,.44.02.63-.06.24-.1.5-.24.64-.44.56-.79.11-1.76-.86-1.86-.52-.05-1.04-.01-1.57-.01v-3.03h.77c2.56,0,5.13,0,7.69,0,1.5,0,2.39-.83,2.4-2.26.02-5.32.01-10.64,0-15.96Zm-9.77,21.81c.08,0,.17,0,.25,0,.39.04.72.18.71.64,0,.45-.32.61-.73.61-.78,0-1.57,0-2.35,0h-2.92c-1.69,0-3.39,0-5.08,0-.19,0-.42.04-.56-.06-.19-.12-.41-.35-.42-.54,0-.18.2-.43.38-.55.16-.1.4-.1.61-.1,3.37,0,6.73,0,10.1,0Zm-8.35-.62v-2.94h6.6v2.94h-6.6Zm17.51-4.79c-.13.8-.75,1.21-1.68,1.21-4.47,0-8.94,0-13.41,0-3.81,0-7.62,0-11.44,0-1.46,0-1.97-.51-1.98-1.98,0-.29,0-.58,0-.9h28.52c0,.56.07,1.13-.02,1.67Zm.04-3.01v.66h-28.49v-9.86c.81,0,1.59.02,2.37-.02.24-.01.47-.19.71-.3-.25-.1-.5-.28-.75-.29-.76-.04-1.52-.01-2.33-.01v-1.18c.73,0,1.42,0,2.12,0,.15,0,.31.04.44-.01.19-.08.35-.22.52-.33-.19-.09-.38-.25-.57-.26-.82-.03-1.65-.01-2.52-.01v-1.21c1.36,0,2.69.02,4.01-.01.31,0,.77.23.85-.32,0-.04-.54-.23-.84-.24-1.33-.03-2.66-.01-3.99-.01-.04-.95.51-1.57,1.4-1.63.17-.01.34,0,.51,0h24.66c1.35,0,1.9.54,1.9,1.86,0,4.39,0,8.78,0,13.17Z"/><path class="cls-1" d="m185.25,35.73c.14.18.2.28.29.37.22.23.44.45.67.67.36.35.35.69,0,1.04-.08.07-.15.15-.22.23-.78.78-.89.78-1.68,0-.08-.07-.14-.17-.23-.22-.18-.11-.38-.19-.57-.28-.08.21-.2.42-.24.64-.04.2,0,.42-.02.63-.03.4-.23.62-.65.6-.06,0-.13,0-.19,0-1.36.01-1.35.01-1.41-1.32,0-.19-.13-.44-.28-.54-.1-.06-.34.12-.52.2-.04.02-.06.06-.09.09-.99,1.01-.91,1.15-2.11-.08-.3-.31-.3-.63,0-.94.24-.24.5-.46.71-.73.09-.12.14-.34.1-.48-.03-.11-.23-.18-.37-.25-.05-.03-.12,0-.19,0-1.3-.03-1.58-.35-1.29-1.65.05-.21.36-.41.59-.52.2-.09.46,0,.69-.03.2-.04.48-.1.56-.24.06-.12-.08-.39-.2-.55-.17-.24-.41-.42-.61-.64-.28-.31-.3-.64.02-.95.03-.03.06-.06.09-.09.97-1.01.97-1.01,1.98-.03.17.17.44.24.67.35.08-.24.23-.47.24-.71.03-1.07.96-1.63,1.92-1.11.16.08.25.32.32.5.05.15,0,.34.02.5.05.27.14.53.21.79.26-.13.53-.24.77-.4.16-.1.28-.26.41-.4.35-.37.69-.34,1.03.02.12.12.24.24.36.36.6.61.61.75.01,1.34-.18.18-.38.34-.53.54-.08.11-.16.32-.11.42.07.13.26.21.41.29.07.03.17,0,.25,0,1.16,0,1.63.71,1.18,1.8-.07.18-.36.32-.57.37-.28.06-.6-.02-.88.03-.19.04-.34.22-.55.35Zm-.04,2.22c.18-.19.39-.42.73-.78-.36-.3-.74-.55-1.03-.88-.14-.16-.18-.47-.15-.7.1-.64.48-.93,1.16-.82.24.04.49,0,.75,0v-1.03c-.25,0-.49.02-.71,0-.38-.05-.8.17-1.07-.4-.29-.63-.21-1.07.33-1.45.24-.17.49-.33.74-.49-.07-.04-.15-.08-.22-.12-.19-.25-.38-.5-.62-.82-.37.4-.65.71-.93,1.03-.22.25-.45.37-.77.16-.32-.21-.87-.17-.8-.8.04-.36,0-.74,0-1.11h-1.02c0,.39-.04.75,0,1.1.08.63-.45.6-.79.8-.31.19-.54.13-.77-.14-.28-.33-.59-.64-.89-.98-.32.3-.54.51-.89.83.39.33.76.58,1.05.91.14.16.2.49.13.69-.11.34-.11.84-.71.8-.39-.03-.78,0-1.17,0v1.03c.41,0,.79.02,1.17,0,.59-.04.59.47.7.81.07.21.02.55-.11.7-.31.33-.7.59-1.06.87.04.06-.08-.04,0,0,.18.25.59.61.72.78.75-.24.83-1.22,1.7-1.09,1.24.18.84,1.17.94,1.94h.97c.11-.75-.32-1.71.87-1.93.91-.17,1,.84,1.73,1.08Z"/><path class="cls-1" d="m192.42,29.7c.19-.04.28-.05.35-.08.52-.24.8-.11.97.47.16.53.13.85-.48.98-.17.04-.32.21-.48.33.15.15.27.34.45.44.7.38.79.95.17,1.46-.14.12-.49.03-.73-.01-.25-.04-.49-.13-.74-.2.01.25-.04.52.04.74.18.52-.09.68-.51.8-.4.12-.79.3-.96-.3-.04-.14-.07-.29-.14-.42-.17-.3-.37-.33-.57-.03-.06.09-.1.19-.15.28-.36.69-.43.69-1.11.38-.58-.26-.54-.59-.28-1.05.11-.19.1-.45.14-.68-.23.02-.49-.02-.69.06-.54.21-.72-.08-.86-.52-.14-.44-.23-.82.39-.97.21-.05.39-.25.58-.38-.18-.15-.33-.36-.53-.45-.57-.23-.64-.53-.37-1.07.29-.59.62-.57,1.11-.29.18.1.42.1.64.15,0-.21.05-.44-.02-.63-.21-.57.04-.78.55-.96.53-.18.79-.07.94.46.05.19.23.35.34.53.15-.15.33-.29.43-.47.38-.68,1.08-.79,1.49-.13.13.21-.12.66-.2,1.01-.03.13-.09.29-.05.39.04.09.22.13.26.15Zm.97,2.83c-.24-.56-1.04-.3-1.06-1.06-.02-.81.71-.62,1.11-.95-.07-.2-.14-.4-.2-.58-.49-.06-.86.49-1.34,0-.62-.63.2-1.01.17-1.58-.17-.08-.37-.18-.49-.23-.5.31-.32,1.09-1.14,1.04-.76-.05-.47-.74-.87-1.07-.17.05-.37.12-.54.17-.08.5.53.88-.05,1.38-.65.55-.97-.25-1.53-.2-.07.15-.17.35-.24.5.28.48,1.02.29,1.06,1.03.03.83-.74.58-1.09.96.07.19.14.4.16.44.53.04,1.03-.06,1.32.13.77.5-.14,1-.12,1.56.18.08.38.18.51.24.48-.28.27-.99.97-1.05.84-.06.68.69.99,1.1.21-.07.4-.14.58-.2.06-.49-.51-.94.09-1.41.62-.48.94.29,1.49.23.08-.14.17-.32.24-.44Z"/><path class="cls-1" d="m180.21,34.27c0-1.08.86-1.91,1.95-1.9,1.06.01,1.88.85,1.88,1.9,0,1.03-.86,1.91-1.89,1.93-1.04.02-1.94-.88-1.94-1.93Zm3.21,0c0-.75-.58-1.33-1.31-1.32-.72,0-1.31.62-1.3,1.35.01.71.59,1.28,1.29,1.29.74.01,1.31-.57,1.31-1.32Z"/><path class="cls-1" d="m190.3,29.89c.74,0,1.34.6,1.34,1.32,0,.71-.62,1.34-1.34,1.34-.71,0-1.33-.62-1.33-1.34,0-.74.58-1.32,1.32-1.32Zm0,2.26c.47.01.94-.44.96-.92.02-.46-.43-.93-.91-.96-.49-.03-.94.38-.97.88-.03.52.4.98.92,1Z"/></g><path class="cls-1" d="m159.63,36.04l-2.87-1.17h-.02c-2.31-.92-2.31-1.55-2.31-1.82,0-1.06,1.39-1.61,2.77-1.61,1.56,0,3.08.6,4.38,1.73l3.68-4.25c-2.34-2.03-5.13-3.09-8.06-3.09-4.78,0-8.38,3.11-8.38,7.23,0,3.13,1.97,5.49,5.85,7.03l2.89,1.17c2.09.83,2.09,1.33,2.09,1.72,0,1.67-2.57,1.76-3.09,1.76h-7.16v4.05c-.92,0-3.67.06-4.5-.03-.4-.04-.89-.28-1.12-.59-.91-1.18-1.73-2.43-2.6-3.64-.74-1.02-1.52-2.03-2.14-2.84,1.12-.96,2.3-1.72,3.15-2.75,1.38-1.68,1.57-3.78,1.51-5.89-.13-4.45-2.23-7.15-6.68-7.57-4.57-.43-9.19-.29-13.79-.39-.05,0-.1.05-.25.15v23.55c-1.42,0-2.74.04-4.06-.02-.34-.02-.78-.24-.99-.51-1.54-2.02-3.04-4.07-4.53-6.13-1.39-1.91-2.74-3.84-4.13-5.78,3.38-3.75,6.71-7.45,10.16-11.27-2.35,0-4.46-.02-6.57.02-.3,0-.66.21-.87.44-1.71,1.81-3.38,3.65-5.07,5.48-1.34,1.45-2.69,2.9-4.22,4.56v-10.44h-5.71v23.66c-1.73,0-3.37.02-5.01-.02-.25,0-.55-.28-.72-.51-1.1-1.51-2.16-3.06-3.26-4.57-.53-.74-1.12-1.45-1.73-2.24,2.19-.83,3.65-2.23,4.34-4.33.71-2.17.74-4.37.18-6.57-.44-1.74-1.37-3.26-3.05-3.97-1.46-.62-3.05-1.18-4.61-1.27-4.13-.22-8.27-.17-12.4-.22-.08,0-.16.05-.32.1v23.55h-11.02c8.33-5.61,7.17-15.55,2.6-20.21-5.15-5.25-14.26-5.39-19.49-.13-2.65,2.66-3.84,5.88-3.76,9.58.1,4.65,2.37,8.1,6.21,10.74h-15.74c2.79-7.9,5.55-15.73,8.35-23.65-1.89,0-3.65.03-5.4-.02-.6-.01-.85.16-1.05.73-1.08,3.21-2.2,6.39-3.32,9.59-.48,1.37-.96,2.74-1.52,4.33-1.55-5.04-3.03-9.84-4.51-14.63-1.85,0-3.58.02-5.31-.01-.51,0-.7.17-.84.64-.78,2.63-1.61,5.24-2.43,7.86-.61,1.96-1.22,3.91-1.9,6.09-.19-.49-.3-.75-.39-1.02-1.47-4.27-2.94-8.55-4.43-12.82-.1-.28-.38-.71-.58-.71-1.9-.05-3.79-.03-5.86-.03,2.81,7.96,5.57,15.79,8.37,23.74H.2v1.53c4.2,0,8.34-.01,12.47.01.53,0,.61-.29.73-.67,1.03-3.25,2.08-6.5,3.11-9.75.73-2.28,1.44-4.56,2.23-7.07,1.91,5.96,3.75,11.69,5.59,17.41h51.76v-7.83c1.27,0,2.47-.02,3.66.02.2,0,.46.22.59.41,1.64,2.27,3.28,4.54,4.89,6.84.32.45.64.65,1.21.64,5.14-.02,10.27-.01,15.41-.02.25,0,.51-.03.81-.05,0-2.14,0-4.21,0-6.29,0-.26-.06-.6.08-.76.8-.91,1.65-1.78,2.49-2.67.89,1.1,1.74,2.1,2.53,3.14,1.51,1.98,3.01,3.96,4.46,5.98.35.48.71.66,1.29.66,4.76-.02,9.51-.01,14.26-.01.28,0,.56-.03.94-.05v-7.85c.89,0,1.7.09,2.47-.02,1.2-.17,1.86.43,2.47,1.32,1.38,2.03,2.82,4.02,4.21,6.05.28.41.57.57,1.07.56,2.64-.02,5.28,0,7.92-.01.22,0,2.28.02,2.53.02h7.16c5.98,0,8.71-3.82,8.71-7.38,0-4.69-4.22-6.38-5.63-6.94Zm-109.41,9.36c-2.85-.82-4.75-2.7-5.4-5.65-.78-3.5.14-6.52,2.93-8.8,3.45-2.83,8.76-1.57,10.89,2.47.76,1.43,1.07,2.65,1.08,4.19.12,5.45-4.8,9.14-9.49,7.79Zm32.05-8.08c-2.01.14-4.04.03-6.13.03v-7.22c2.12,0,4.18-.12,6.21.04,2.14.17,2.97,1.24,2.97,3.37,0,2.23-1.03,3.63-3.06,3.78Zm52.59,0c-2.01.14-4.03.03-6.11.03v-7.21c2.1,0,4.16-.13,6.19.04,2.17.17,2.96,1.23,2.93,3.46-.02,2.25-.97,3.54-3.01,3.69Z"/></g><text class="cls-2" transform="translate(25.16 19.62)"><tspan class="cls-5" x="0" y="0">W</tspan><tspan x="21.99" y="0">elcome </tspan><tspan class="cls-3" x="119.86" y="0">T</tspan><tspan class="cls-4" x="134.63" y="0">o</tspan></text></g></g></svg>